<svg width="58" height="53" viewBox="0 0 58 53" fill="none" xmlns="http://www.w3.org/2000/svg">
<path d="M52.5 13H44.5L40 8H25V13H37.75L42.5 18H52.5V48H12.5V25.5H7.5V48C7.5 50.75 9.75 53 12.5 53H52.5C55.25 53 57.5 50.75 57.5 48V18C57.5 15.25 55.25 13 52.5 13ZM20 33C20 44.125 33.475 49.725 41.35 41.85C49.225 33.975 43.625 20.5 32.5 20.5C25.6 20.5 20 26.1 20 33ZM32.5 25.5C34.4712 25.5566 36.3461 26.365 37.7406 27.7594C39.135 29.1539 39.9434 31.0288 40 33C39.9434 34.9712 39.135 36.8461 37.7406 38.2406C36.3461 39.635 34.4712 40.4434 32.5 40.5C30.5288 40.4434 28.6539 39.635 27.2594 38.2406C25.865 36.8461 25.0566 34.9712 25 33C25.0566 31.0288 25.865 29.1539 27.2594 27.7594C28.6539 26.365 30.5288 25.5566 32.5 25.5ZM12.5 13H20V8H12.5V0.5H7.5V8H0V13H7.5V20.5H12.5" fill="white"/>
</svg>
