<svg width="24" height="25" viewBox="0 0 24 25" fill="none" xmlns="http://www.w3.org/2000/svg">
<path d="M2.96875 11.082V16.0838C2.96875 18.9132 2.96875 20.3279 3.84743 21.2069C4.72611 22.086 6.14032 22.086 8.96875 22.086H14.9688C17.7971 22.086 19.2113 22.086 20.09 21.2069C20.9687 20.3279 20.9688 18.9132 20.9688 16.0838V11.082" stroke="#3A3A3A" strokeWidth="2" strokeLinecap="round"/>
<path d="M14.9688 17.5781C14.2847 18.1853 13.1955 18.5781 11.9688 18.5781C10.742 18.5781 9.65284 18.1853 8.96875 17.5781" stroke="#3A3A3A" strokeWidth="2" strokeLinecap="round"/>
<path d="M10.1038 9.00393C9.82182 10.0223 8.79628 11.779 6.84777 12.0336C5.12733 12.2584 3.82246 11.5074 3.48916 11.1934C3.12168 10.9388 2.28416 10.1242 2.07906 9.61497C1.87395 9.10577 2.11324 8.00251 2.28416 7.55271L2.96743 5.57433C3.13423 5.07741 3.5247 3.90211 3.92501 3.50458C4.32533 3.10705 5.13581 3.08975 5.4694 3.08975H12.4749C14.2781 3.11523 18.2209 3.07367 19.0003 3.08976C19.7797 3.10584 20.2481 3.75918 20.3848 4.03924C21.5477 6.85606 22 8.46927 22 9.15669C21.8482 9.89001 21.22 11.2727 19.0003 11.8809C16.6933 12.5129 15.3854 11.2835 14.9751 10.8115M9.15522 10.8115C9.47997 11.2104 10.4987 12.0133 11.9754 12.0336C13.4522 12.054 14.7273 11.0237 15.1802 10.5061C15.3084 10.3533 15.5853 9.90012 15.8725 9.00393" stroke="#3A3A3A" strokeWidth="2" strokeLinecap="round" strokeLinejoin="round"/>
</svg>
