<svg width="24" height="25" viewBox="0 0 24 25" fill="none" xmlns="http://www.w3.org/2000/svg">
<path d="M2 7.58594C2 6.18581 2 5.48574 2.27248 4.95096C2.51217 4.48056 2.89462 4.09811 3.36502 3.85842C3.8998 3.58594 4.59987 3.58594 6 3.58594C7.40013 3.58594 8.1002 3.58594 8.63498 3.85842C9.10538 4.09811 9.48783 4.48056 9.72752 4.95096C10 5.48574 10 6.18581 10 7.58594V17.5859C10 18.986 10 19.6861 9.72752 20.2209C9.48783 20.6913 9.10538 21.0737 8.63498 21.3134C8.1002 21.5859 7.40013 21.5859 6 21.5859C4.59987 21.5859 3.8998 21.5859 3.36502 21.3134C2.89462 21.0737 2.51217 20.6913 2.27248 20.2209C2 19.6861 2 18.986 2 17.5859V7.58594Z" stroke="#3A3A3A" stroke-width="2" stroke-linecap="round" stroke-linejoin="round"/>
<path d="M6 17.5859H6.00898" stroke="#3A3A3A" stroke-width="2" stroke-linecap="round" stroke-linejoin="round"/>
<path d="M2 7.58594H10" stroke="#3A3A3A" stroke-width="2" stroke-linecap="round" stroke-linejoin="round"/>
<path d="M11.4486 8.85437C11.0937 7.52432 10.9163 6.8593 11.0385 6.28193C11.146 5.77406 11.4108 5.31341 11.7951 4.96599C12.2319 4.57102 12.8942 4.39283 14.2187 4.03644C15.5432 3.68006 16.2055 3.50187 16.7804 3.62459C17.2862 3.73254 17.7449 3.9985 18.0909 4.38435C18.4842 4.823 18.6617 5.48803 19.0166 6.81807L21.5514 16.3175C21.9063 17.6475 22.0837 18.3125 21.9615 18.8899C21.854 19.3978 21.5892 19.8584 21.2049 20.2059C20.7681 20.6008 20.1058 20.779 18.7813 21.1354C17.4568 21.4918 16.7945 21.67 16.2196 21.5473C15.7138 21.4393 15.2551 21.1733 14.9091 20.7875C14.5158 20.3488 14.3383 19.6838 13.9834 18.3538L11.4486 8.85437Z" stroke="#3A3A3A" stroke-width="2" stroke-linecap="round" stroke-linejoin="round"/>
<path d="M17.7812 17.2796L17.7899 17.2773" stroke="#3A3A3A" stroke-width="2" stroke-linecap="round" stroke-linejoin="round"/>
<path d="M12 8.58613L18.5001 6.58594" stroke="#3A3A3A" stroke-width="2" stroke-linecap="round" stroke-linejoin="round"/>
</svg>
