<svg xmlns="http://www.w3.org/2000/svg" width="16" height="16" viewBox="0 0 16 16" fill="none">
<path d="M12 5C12 3.93913 11.5786 2.92172 10.8284 2.17157C10.0783 1.42143 9.06087 1 8 1C6.93913 1 5.92172 1.42143 5.17157 2.17157C4.42143 2.92172 4 3.93913 4 5C4 9.66667 2 11 2 11H14C14 11 12 9.66667 12 5Z" stroke="#800000" strokeWidth="1.5" strokeLinecap="round" strokeLinejoin="round" fill="#ffffff"/>
<path d="M9.15042 13.6641C9.03321 13.8661 8.86498 14.0338 8.66257 14.1504C8.46016 14.267 8.23067 14.3284 7.99708 14.3284C7.7635 14.3284 7.53401 14.267 7.3316 14.1504C7.12919 14.0338 6.96096 13.8661 6.84375 13.6641" stroke="#800000" strokeWidth="1.5" strokeLinecap="round" strokeLinejoin="round" fill="#ffffff"/>
</svg>