<svg width="24" height="24" viewBox="0 0 24 24" fill="none" xmlns="http://www.w3.org/2000/svg">
<path d="M12.857 3.1875H11.143C10.462 3.1875 10.121 3.1875 9.812 3.2815C9.538 3.3645 9.283 3.5015 9.062 3.6825C8.812 3.8875 8.624 4.1715 8.246 4.7385L7.103 6.4525C5.579 6.4525 4.817 6.4525 4.235 6.7485C3.72325 7.00973 3.30737 7.42631 3.047 7.9385C2.75 8.5195 2.75 9.2815 2.75 10.8055V16.4565C2.75 17.9805 2.75 18.7425 3.047 19.3245C3.307 19.8365 3.724 20.2525 4.235 20.5135C4.817 20.8095 5.579 20.8095 7.103 20.8095H16.897C18.421 20.8095 19.183 20.8095 19.765 20.5135C20.2767 20.2523 20.6926 19.8357 20.953 19.3235C21.25 18.7425 21.25 17.9805 21.25 16.4565V10.8055C21.25 9.2815 21.25 8.5195 20.953 7.9375C20.6925 7.42569 20.2766 7.00947 19.765 6.7485C19.183 6.4525 18.421 6.4525 16.897 6.4525L15.754 4.7385C15.376 4.1715 15.187 3.8885 14.938 3.6825C14.7165 3.50132 14.4617 3.36511 14.188 3.2815C13.879 3.1875 13.538 3.1875 12.857 3.1875Z" stroke="#ADACB2" stroke-linecap="round" stroke-linejoin="round"/>
<path d="M15.7766 13.2086C15.7766 13.7043 15.6789 14.1952 15.4892 14.6532C15.2995 15.1112 15.0214 15.5274 14.6709 15.8779C14.3203 16.2285 13.9042 16.5065 13.4462 16.6962C12.9882 16.886 12.4973 16.9836 12.0016 16.9836C11.5058 16.9836 11.0149 16.886 10.5569 16.6962C10.0989 16.5065 9.68278 16.2285 9.33223 15.8779C8.98169 15.5274 8.70363 15.1112 8.51392 14.6532C8.32421 14.1952 8.22656 13.7043 8.22656 13.2086C8.22656 12.2074 8.62428 11.2472 9.33223 10.5393C10.0402 9.83132 11.0004 9.43359 12.0016 9.43359C13.0028 9.43359 13.9629 9.83132 14.6709 10.5393C15.3788 11.2472 15.7766 12.2074 15.7766 13.2086Z" stroke="#ADACB2" stroke-linecap="round" stroke-linejoin="round"/>
</svg>
