<svg xmlns="http://www.w3.org/2000/svg" xmlns:xlink="http://www.w3.org/1999/xlink" width="20px" height="20px" viewBox="0 0 20 20" version="1.1">
<g id="surface1">
<path style=" stroke:none;fill-rule:nonzero;fill:#800000;fill-opacity:1;" d="M 10.839844 3.902344 C 10.839844 1.792969 9.121094 0.078125 7.011719 0.078125 C 4.902344 0.078125 3.1875 1.792969 3.1875 3.902344 C 3.1875 6.011719 4.902344 7.726562 7.011719 7.726562 C 9.121094 7.726562 10.839844 6.011719 10.839844 3.902344 Z M 10.839844 3.902344 "/>
<path style=" stroke:none;fill-rule:nonzero;fill:#800000;fill-opacity:1;" d="M 13.9375 11.046875 C 13.582031 10.6875 13.003906 10.6875 12.644531 11.046875 C 12.289062 11.402344 12.289062 11.980469 12.644531 12.339844 L 13.828125 13.523438 L 12.644531 14.703125 C 12.289062 15.0625 12.289062 15.640625 12.644531 15.996094 C 12.824219 16.175781 13.058594 16.265625 13.292969 16.265625 C 13.527344 16.265625 13.761719 16.175781 13.9375 15.996094 L 15.769531 14.167969 C 15.941406 13.996094 16.035156 13.765625 16.035156 13.523438 C 16.035156 13.28125 15.941406 13.046875 15.769531 12.875 Z M 13.9375 11.046875 "/>
<path style=" stroke:none;fill-rule:nonzero;fill:#800000;fill-opacity:1;" d="M 13.597656 7.117188 C 11.496094 7.117188 9.625 8.136719 8.457031 9.707031 C 7.984375 9.609375 7.5 9.558594 7.011719 9.558594 C 3.144531 9.558594 0 12.703125 0 16.570312 C 0 17.074219 0.410156 17.484375 0.914062 17.484375 L 8.574219 17.484375 C 9.746094 18.96875 11.5625 19.921875 13.597656 19.921875 C 17.128906 19.921875 20 17.050781 20 13.523438 C 20 9.992188 17.128906 7.117188 13.597656 7.117188 Z M 13.597656 18.09375 C 11.078125 18.09375 9.023438 16.042969 9.023438 13.523438 C 9.023438 11 11.078125 8.949219 13.597656 8.949219 C 16.117188 8.949219 18.171875 11 18.171875 13.523438 C 18.171875 16.042969 16.117188 18.09375 13.597656 18.09375 Z M 13.597656 18.09375 "/>
</g>
</svg>