<svg width="32" height="32" viewBox="0 0 32 32" fill="#750015" xmlns="http://www.w3.org/2000/svg">
<path d="M16.0013 28.0018L14.068 26.2685C11.8235 24.2463 9.96797 22.5018 8.5013 21.0352C7.03464 19.5685 5.86797 18.2516 5.0013 17.0845C4.13464 15.9174 3.5293 14.8454 3.1853 13.8685C2.8413 12.8916 2.66886 11.8916 2.66797 10.8685C2.66797 8.7796 3.36797 7.03516 4.76797 5.63516C6.16797 4.23516 7.91241 3.53516 10.0013 3.53516C11.1569 3.53516 12.2569 3.7796 13.3013 4.26849C14.3457 4.75738 15.2457 5.44627 16.0013 6.33516C16.7569 5.44627 17.6569 4.75738 18.7013 4.26849C19.7457 3.7796 20.8457 3.53516 22.0013 3.53516C24.0902 3.53516 25.8346 4.23516 27.2346 5.63516C28.6346 7.03516 29.3346 8.7796 29.3346 10.8685C29.3346 11.8907 29.1626 12.8907 28.8186 13.8685C28.4746 14.8463 27.8689 15.9183 27.0013 17.0845C26.1337 18.2507 24.9671 19.5676 23.5013 21.0352C22.0355 22.5027 20.18 24.2472 17.9346 26.2685L16.0013 28.0018ZM16.0013 24.4018C18.1346 22.4907 19.8902 20.852 21.268 19.4858C22.6457 18.1196 23.7346 16.9307 24.5346 15.9192C25.3346 14.9076 25.8902 14.0072 26.2013 13.2178C26.5124 12.4285 26.668 11.6454 26.668 10.8685C26.668 9.53516 26.2235 8.42405 25.3346 7.53516C24.4457 6.64627 23.3346 6.20182 22.0013 6.20182C20.9569 6.20182 19.9902 6.49604 19.1013 7.08449C18.2124 7.67293 17.6013 8.42316 17.268 9.33516H14.7346C14.4013 8.42405 13.7902 7.67427 12.9013 7.08582C12.0124 6.49738 11.0457 6.20271 10.0013 6.20182C8.66797 6.20182 7.55686 6.64627 6.66797 7.53516C5.77908 8.42405 5.33464 9.53516 5.33464 10.8685C5.33464 11.6463 5.49019 12.4298 5.8013 13.2192C6.11241 14.0085 6.66797 14.9085 7.46797 15.9192C8.26797 16.9298 9.35686 18.1187 10.7346 19.4858C12.1124 20.8529 13.868 22.4916 16.0013 24.4018Z" fill="#750015"/>
</svg>
