<svg width="24" height="25" viewBox="0 0 24 25" fill="none" xmlns="http://www.w3.org/2000/svg">
<path d="M21.3175 8.01639L20.8239 7.15979C20.4506 6.51196 20.264 6.18805 19.9464 6.05888C19.6288 5.92972 19.2696 6.03164 18.5513 6.23548L17.3311 6.57918C16.8725 6.68494 16.3913 6.62494 15.9726 6.40979L15.6357 6.21542C15.2766 5.98543 15.0004 5.64633 14.8475 5.24774L14.5136 4.25036C14.294 3.59034 14.1842 3.26033 13.9228 3.07157C13.6615 2.88281 13.3143 2.88281 12.6199 2.88281H11.5051C10.8108 2.88281 10.4636 2.88281 10.2022 3.07157C9.94085 3.26033 9.83106 3.59034 9.61149 4.25036L9.27753 5.24774C9.12465 5.64633 8.84845 5.98543 8.48937 6.21542L8.15249 6.40979C7.73374 6.62494 7.25259 6.68494 6.79398 6.57918L5.57375 6.23548C4.85541 6.03164 4.49625 5.92972 4.17867 6.05888C3.86109 6.18805 3.67445 6.51196 3.30115 7.15979L2.80757 8.01639C2.45766 8.62364 2.2827 8.92727 2.31666 9.25049C2.35061 9.57371 2.58483 9.83418 3.05326 10.3551L4.0843 11.5078C4.3363 11.8268 4.51521 12.3828 4.51521 12.8827C4.51521 13.3828 4.33636 13.9386 4.08433 14.2577L3.05326 15.4104C2.58483 15.9314 2.35062 16.1918 2.31666 16.5151C2.2827 16.8383 2.45766 17.1419 2.80757 17.7491L3.30114 18.6057C3.67443 19.2535 3.86109 19.5775 4.17867 19.7066C4.49625 19.8358 4.85542 19.7339 5.57377 19.53L6.79394 19.1863C7.25263 19.0805 7.73387 19.1406 8.15267 19.3558L8.4895 19.5502C8.84851 19.7802 9.12464 20.1192 9.2775 20.5178L9.61149 21.5153C9.83106 22.1753 9.94085 22.5053 10.2022 22.6941C10.4636 22.8828 10.8108 22.8828 11.5051 22.8828H12.6199C13.3143 22.8828 13.6615 22.8828 13.9228 22.6941C14.1842 22.5053 14.294 22.1753 14.5136 21.5153L14.8476 20.5178C15.0004 20.1192 15.2765 19.7802 15.6356 19.5502L15.9724 19.3558C16.3912 19.1406 16.8724 19.0805 17.3311 19.1863L18.5513 19.53C19.2696 19.7339 19.6288 19.8358 19.9464 19.7066C20.264 19.5775 20.4506 19.2535 20.8239 18.6057L21.3175 17.7491C21.6674 17.1419 21.8423 16.8383 21.8084 16.5151C21.7744 16.1918 21.5402 15.9314 21.0718 15.4104L20.0407 14.2577C19.7887 13.9386 19.6098 13.3828 19.6098 12.8827C19.6098 12.3828 19.7888 11.8268 20.0407 11.5078L21.0718 10.3551C21.5402 9.83418 21.7744 9.57371 21.8084 9.25049C21.8423 8.92727 21.6674 8.62364 21.3175 8.01639Z" stroke="#3A3A3A" stroke-width="2" stroke-linecap="round"/>
<path d="M15.5195 12.875C15.5195 14.808 13.9525 16.375 12.0195 16.375C10.0865 16.375 8.51953 14.808 8.51953 12.875C8.51953 10.942 10.0865 9.375 12.0195 9.375C13.9525 9.375 15.5195 10.942 15.5195 12.875Z" stroke="#3A3A3A" stroke-width="2"/>
</svg>
