<svg width="22" height="26" viewBox="0 0 22 26" fill="none" xmlns="http://www.w3.org/2000/svg">
<path d="M14.3333 5.66667L7.66667 10.3333M14.3333 20.3333L7.66667 15.6667M7.66667 13C7.66667 13.8841 7.31548 14.7319 6.69036 15.357C6.06523 15.9821 5.21739 16.3333 4.33333 16.3333C3.44928 16.3333 2.60143 15.9821 1.97631 15.357C1.35119 14.7319 1 13.8841 1 13C1 12.1159 1.35119 11.2681 1.97631 10.643C2.60143 10.0179 3.44928 9.66667 4.33333 9.66667C5.21739 9.66667 6.06523 10.0179 6.69036 10.643C7.31548 11.2681 7.66667 12.1159 7.66667 13ZM21 21.6667C21 22.5507 20.6488 23.3986 20.0237 24.0237C19.3986 24.6488 18.5507 25 17.6667 25C16.7826 25 15.9348 24.6488 15.3096 24.0237C14.6845 23.3986 14.3333 22.5507 14.3333 21.6667C14.3333 20.7826 14.6845 19.9348 15.3096 19.3096C15.9348 18.6845 16.7826 18.3333 17.6667 18.3333C18.5507 18.3333 19.3986 18.6845 20.0237 19.3096C20.6488 19.9348 21 20.7826 21 21.6667ZM21 4.33333C21 5.21739 20.6488 6.06523 20.0237 6.69036C19.3986 7.31548 18.5507 7.66667 17.6667 7.66667C16.7826 7.66667 15.9348 7.31548 15.3096 6.69036C14.6845 6.06523 14.3333 5.21739 14.3333 4.33333C14.3333 3.44928 14.6845 2.60143 15.3096 1.97631C15.9348 1.35119 16.7826 1 17.6667 1C18.5507 1 19.3986 1.35119 20.0237 1.97631C20.6488 2.60143 21 3.44928 21 4.33333Z" stroke="#750015" stroke-linecap="round" stroke-linejoin="round"/>
</svg>
