<svg width="18" height="18" viewBox="0 0 18 18" fill="none" xmlns="http://www.w3.org/2000/svg">
<path d="M8.1263 9.58239L6.91797 8.39489C6.76519 8.24211 6.57436 8.16572 6.34547 8.16572C6.11658 8.16572 5.91853 8.24906 5.7513 8.41572C5.59853 8.5685 5.52214 8.76295 5.52214 8.99906C5.52214 9.23517 5.59853 9.42961 5.7513 9.58239L7.54297 11.3741C7.70964 11.5407 7.90408 11.6241 8.1263 11.6241C8.34853 11.6241 8.54297 11.5407 8.70964 11.3741L12.2513 7.83239C12.418 7.66572 12.4977 7.47128 12.4905 7.24906C12.4832 7.02683 12.4035 6.83239 12.2513 6.66572C12.0846 6.49906 11.8869 6.41239 11.658 6.40572C11.4291 6.39906 11.231 6.47878 11.0638 6.64489L8.1263 9.58239ZM5.79297 17.1241L4.58464 15.0824L2.29297 14.5824C2.08464 14.5407 1.91797 14.4332 1.79297 14.2599C1.66797 14.0866 1.61936 13.8954 1.64714 13.6866L1.8763 11.3324L0.313802 9.54072C0.174913 9.38794 0.105469 9.20739 0.105469 8.99906C0.105469 8.79072 0.174913 8.61017 0.313802 8.45739L1.8763 6.66572L1.64714 4.31156C1.61936 4.10322 1.66797 3.91211 1.79297 3.73822C1.91797 3.56433 2.08464 3.45683 2.29297 3.41572L4.58464 2.91572L5.79297 0.874056C5.90408 0.693501 6.05686 0.571834 6.2513 0.509056C6.44575 0.446278 6.64019 0.456834 6.83464 0.540723L9.0013 1.45739L11.168 0.540723C11.3624 0.45739 11.5569 0.446834 11.7513 0.509056C11.9457 0.571278 12.0985 0.692945 12.2096 0.874056L13.418 2.91572L15.7096 3.41572C15.918 3.45739 16.0846 3.56517 16.2096 3.73906C16.3346 3.91295 16.3832 4.10378 16.3555 4.31156L16.1263 6.66572L17.6888 8.45739C17.8277 8.61017 17.8971 8.79072 17.8971 8.99906C17.8971 9.20739 17.8277 9.38794 17.6888 9.54072L16.1263 11.3324L16.3555 13.6866C16.3832 13.8949 16.3346 14.086 16.2096 14.2599C16.0846 14.4338 15.918 14.5413 15.7096 14.5824L13.418 15.0824L12.2096 17.1241C12.0985 17.3046 11.9457 17.4263 11.7513 17.4891C11.5569 17.5518 11.3624 17.5413 11.168 17.4574L9.0013 16.5407L6.83464 17.4574C6.64019 17.5407 6.44575 17.5513 6.2513 17.4891C6.05686 17.4268 5.90408 17.3052 5.79297 17.1241Z" fill="#750015"/>
</svg>
