<svg width="24" height="25" viewBox="0 0 24 25" fill="none" xmlns="http://www.w3.org/2000/svg">
<path d="M7.08848 5.22458L6.08847 6.00547C4.57182 7.18981 3.81348 7.78199 3.40674 8.61695C3 9.45191 3 10.4165 3 12.3455V14.4376C3 18.2239 3 20.1171 4.17157 21.2934C5.11466 22.2402 6.52043 22.4249 9 22.4609V18.4666C9 17.5347 9 17.0687 9.15224 16.7012C9.35523 16.2111 9.74458 15.8218 10.2346 15.6188C10.6022 15.4666 11.0681 15.4666 12 15.4666C12.9319 15.4666 13.3978 15.4666 13.7654 15.6188C14.2554 15.8218 14.6448 16.2111 14.8478 16.7012C15 17.0687 15 17.5347 15 18.4666V22.4609C17.4796 22.4249 18.8853 22.2402 19.8284 21.2934C21 20.1171 21 18.2239 21 14.4376V12.3455C21 10.4165 21 9.45191 20.5933 8.61695C20.1865 7.78199 19.4282 7.18981 17.9115 6.00547L16.9115 5.22458C14.5521 3.38215 13.3724 2.46094 12 2.46094C10.6276 2.46094 9.44787 3.38215 7.08848 5.22458Z" stroke="#3A3A3A" stroke-width="2" stroke-linejoin="round"/>
</svg>
